<svg width="22" height="22" viewBox="0 0 22 22" fill="none" xmlns="http://www.w3.org/2000/svg">
<path d="M17.4167 12.8333C18.7825 11.495 20.1667 9.89083 20.1667 7.79167C20.1667 6.45453 19.6355 5.17217 18.69 4.22667C17.7445 3.28117 16.4621 2.75 15.125 2.75C13.5117 2.75 12.375 3.20833 11 4.58333C9.62501 3.20833 8.48834 2.75 6.87501 2.75C5.53788 2.75 4.25551 3.28117 3.31001 4.22667C2.36452 5.17217 1.83334 6.45453 1.83334 7.79167C1.83334 9.9 3.20834 11.5042 4.58334 12.8333L11 19.25L17.4167 12.8333Z" stroke="#0F1D3B" stroke-width="1.83333" stroke-linecap="round" stroke-linejoin="round"/>
<path d="M11 4.5835L8.28666 7.29683C8.10041 7.48173 7.95259 7.70165 7.85172 7.94393C7.75085 8.18621 7.69891 8.44606 7.69891 8.7085C7.69891 8.97094 7.75085 9.23078 7.85172 9.47306C7.95259 9.71534 8.10041 9.93527 8.28666 10.1202C9.03833 10.8718 10.2392 10.8993 11.0367 10.1843L12.9342 8.44266C13.4098 8.01109 14.029 7.77202 14.6712 7.77202C15.3135 7.77202 15.9327 8.01109 16.4083 8.44266L19.1217 10.881" stroke="#0F1D3B" stroke-width="1.83333" stroke-linecap="round" stroke-linejoin="round"/>
<path d="M16.5 13.7498L14.6667 11.9165" stroke="#0F1D3B" stroke-width="1.83333" stroke-linecap="round" stroke-linejoin="round"/>
<path d="M13.75 16.4998L11.9167 14.6665" stroke="#0F1D3B" stroke-width="1.83333" stroke-linecap="round" stroke-linejoin="round"/>
</svg>
